<svg width="22" height="24" viewBox="0 0 22 24" fill="none" xmlns="http://www.w3.org/2000/svg">
<path fill-rule="evenodd" clip-rule="evenodd" d="M21.7272 9.52436C22.0912 9.88515 22.0909 10.4696 21.7264 10.8299L11.121 21.3154C9.35065 23.0658 7.34839 24 5.44927 24C4.9645 24 4.48612 23.9391 4.02054 23.8151C2.14913 23.318 0.723595 21.8801 0.207641 19.9693C-0.435437 17.5889 0.431239 15.0027 2.58514 12.8733L14.4031 1.18875C16.3219 -0.708037 18.9928 -0.11094 20.5314 1.41371C22.624 3.4872 22.0486 5.94257 20.6286 7.3467L8.70997 19.1299C7.13012 20.6914 5.36292 20.5767 4.43389 19.656C3.51471 18.7453 3.40997 17.0073 4.98768 15.4473L13.0489 7.47725C13.4138 7.11699 14.0044 7.11725 14.3684 7.47804C14.7325 7.83883 14.7322 8.42353 14.3676 8.78379L6.30635 16.7536C5.60251 17.4496 5.49644 18.096 5.75389 18.3511C6.02093 18.6161 6.68586 18.5206 7.3913 17.8233L19.31 6.03989C20.5119 4.85177 20.0082 3.5083 19.2114 2.71894C18.3175 1.83332 16.8442 1.38576 15.7217 2.49529L3.90354 14.1798C2.23415 15.8303 1.5439 17.7666 2.01002 19.4922C2.35194 20.7582 3.28418 21.7073 4.50424 22.0317C6.15684 22.4709 8.03864 21.7527 9.80237 20.0089L20.4077 9.52357C20.7723 9.16331 21.3631 9.16357 21.7272 9.52436Z" fill="#A7ADB3"/>
</svg>
